<svg xmlns="http://www.w3.org/2000/svg" width="864" height="358"><path d="M74.747 11.282l-59.31 258.771h573.147c-17.001-1.484-30.424-7.452-38.421-18.331-1.484-2.013-2.71-4.18-3.783-6.448a223.063 223.063 0 01-1.972-5.063c-1.706-5.422-2.386-11.44-2.079-17.852.853-17.87 9.239-39.128 23.767-61.388 15.433-23.657 37.8-48.452 65.492-71.46 6.208-5.154 12.626-10.243 19.344-15.188 8.305-6.11 16.673-11.737 25.046-17 30.848-19.42 61.62-33.01 88.886-39.913-26.056 8.5-55.329 22.932-84.25 42.578-1.04.703-2.067 1.422-3.09 2.132-16.047 11.118-30.584 22.926-43.271 34.85-40.824 38.386-62.401 78.16-52.596 101.463a29.128 29.128 0 002.504 4.583c10.539 15.5 36.657 18.18 69.755 9.858 2.251-.563 4.502-1.2 6.821-1.865 10.573-3.052 21.798-7.175 33.36-12.256 2.779-1.228 5.588-2.49 8.42-3.837.289-.137.562-.273.851-.427 36.493-18.131 64.538-38.995 70.608-51.53 1.33-2.727 1.65-5.051.746-6.874-4.331-8.782-34.64-2.85-71.354 13.055a381.99 381.99 0 00-8.952 3.997 284.583 284.583 0 017.62-6.82 258.56 258.56 0 0113.056-10.552 260.535 260.535 0 0121.582-14.708c33.457-25.24 50.371-49.118 46.841-57.978-.665-1.67-2.08-2.818-4.263-3.517-6.974-2.219-19.704.43-35.17 6.768-12.756 5.231-27.406 12.99-42.259 22.647l-2.025 1.333-.373.213-7.14 4.743 4.103-7.514c6.087-11.144 16.004-22.771 28.35-33.572 9.054-7.897 19.399-15.338 30.534-21.849 4.212-2.466 8.418-4.756 12.63-6.82a181.49 181.49 0 0112.842-5.65c12.237-4.839 25.68-10.95 35.867-11.75-.928 0-30.378 3.171-30.378 3.171H689.78 264.48 74.747zm461.987.373c-1.671 25.505 3.274 62.863 14.495 104.34a579.049 579.049 0 006.554 22.488 562.201 562.201 0 004.583 13.855c-.92 1.354-1.848 2.7-2.718 4.05-14 21.455-22.183 41.731-24.246 59.364-5.918-19.815-10.372-41.52-12.896-64.533a392.823 392.823 0 01-1.652-19.557c-2.762-46.797 3.347-89.219 15.88-120.007zM257.34 44.854c.32-.008.634 0 .96 0h63.04c5.389 0 9.556 1.01 12.523 3.038 2.95 2.039 4.057 4.677 3.357 7.886l-7.513 33.945h-22.222l7.3-33.039h-55.633l-20.09 90.804-7.247 32.88h55.58l.054-.213 11.137-50.305h-26.112l2.505-11.35h48.333l-13.855 62.774c-.188.893-.516 1.703-.96 2.504-1.142 2.08-3.135 3.862-5.914 5.33-3.854 2.028-8.467 3.037-13.856 3.037H225.74c-5.388 0-9.556-1.009-12.523-3.038-2.95-2.03-4.073-4.62-3.357-7.833l27.764-125.496c.716-3.209 2.95-5.847 6.82-7.886.137-.074.29-.09.427-.16 3.533-1.77 7.68-2.765 12.47-2.878zm98.798 0h79.347c5.32 0 9.503 1.01 12.47 3.038 2.984 2.039 4.126 4.677 3.41 7.886l-14.814 66.931c-.7 3.19-2.986 5.79-6.874 7.834-3.888 2.05-8.465 3.09-13.802 3.09h-57.659l-11.137 50.252-1.812 8.26h-21.742l1.652-7.46 30.961-139.831zm109.615 0h21.742l-24.62 111.214-5.382 24.3h52.01a308.998 308.998 0 001.866 11.777H433.14l6.18-27.924 26.432-119.367zm-90.484 11.83l-14.442 65.12h54.195l14.388-65.12H375.27zM259.706 210.376c.212-.007.425 0 .64 0 2.523 0 4.727.443 6.5 1.28 1.893.886 3.247 2.203 3.997 3.943.733 1.688.925 3.604.533 5.701l-.16.8h-6.234l.052-.746c.162-1.466-.02-2.618-.585-3.41-.074-.1-.181-.231-.267-.32a3.459 3.459 0 00-.533-.427c-.872-.55-2.237-.852-3.997-.852-2.336 0-4.082.407-5.275 1.225-1.16.802-1.893 1.697-2.132 2.771-.239 1.092.153 1.665.426 1.972l.054.053c.345.294 1.545.985 5.275 1.865 3.377.819 5.613 1.554 6.875 2.185 1.91.972 3.244 2.232 3.943 3.784.7 1.535.853 3.331.426 5.275-.426 1.893-1.392 3.639-2.824 5.276-1.415 1.637-3.216 2.933-5.382 3.837a18.193 18.193 0 01-6.928 1.385c-3.07 0-5.533-.464-7.46-1.385-2.012-.955-3.464-2.462-4.316-4.423-.82-1.91-.994-4.078-.534-6.448l.16-.746h6.129l-.054.746c-.153 1.415-.002 2.558.373 3.41.359.819 1.04 1.497 2.132 2.025 1.16.563 2.609.853 4.263.853 1.484 0 2.84-.25 4.05-.693 1.194-.426 2.142-.989 2.824-1.705.665-.716 1.055-1.473 1.226-2.292.17-.733.13-1.353-.16-1.865-.324-.545-.966-1.03-1.972-1.438l-5.222-1.546c-2.916-.733-4.88-1.432-6.022-2.132-1.551-.92-2.67-2.101-3.25-3.516-.58-1.399-.642-2.949-.266-4.637.392-1.807 1.263-3.527 2.61-5.062 1.365-1.552 3.125-2.77 5.223-3.57a18.345 18.345 0 015.861-1.173zm55.953.107c.337-.026.654 0 1.013 0l3.836.426 1.28.107-1.866 4.742-.373.746-2.93-.266c-.866 0-1.502.134-1.92.427-.027.02-.08.084-.106.106-.056.05-.15.134-.213.213-.257.337-.569.938-.8 2.025 0 0-.11.46-.212.853h4.582l-1.172 5.276h-4.476c-.341 1.534-4.53 20.302-4.53 20.302h-6.182s4.019-18.034 4.53-20.302h-3.57l1.172-5.276h3.517c.17-.733.426-1.652.426-1.652.376-1.705.768-2.93 1.28-3.784a8.047 8.047 0 012.93-2.877c1.026-.596 2.322-.952 3.784-1.066zm14.761.266l-2.025 9.113h3.997l-1.173 5.276h-3.996c-.324 1.466-2.878 12.842-2.878 12.842s-.213 1.366-.213 1.759v.106c.001.003.05-.002.053 0l.64.053 2.93-.213-.32 4.742.054.853-4.21.48c-1.67 0-2.897-.273-3.784-.853-.937-.614-1.483-1.428-1.705-2.451-.034-.188-.106-.46-.106-.853 0-.767.145-2.065.64-4.316 0 0 2.24-10.036 2.717-12.15h-2.93l1.171-5.276h2.931c.273-1.227 1.226-5.435 1.226-5.435l4.956-2.611 2.025-1.066zm-196.37.213h23.98l-1.332 5.969h-17.532a3671.21 3671.21 0 00-1.758 7.887h15.187l-1.332 5.968h-15.188c-.324 1.484-3.25 14.654-3.25 14.654h-6.448l7.673-34.478zm32.134 8.42c.24-.03.503 0 .746 0 1.534 0 2.952.467 4.316 1.44l.853.585-3.304 5.436-.906-.64a3.895 3.895 0 00-2.132-.64c-.648 0-1.25.231-1.865.64a4.71 4.71 0 00-1.598 1.759c-.717 1.313-1.241 2.783-1.6 4.37l-2.877 13.108h-6.181l5.702-25.578h5.755s-.198.776-.267 1.065c.273-.204.561-.485.8-.639.826-.493 1.698-.8 2.558-.906zm18.331 0c.372-.028.739 0 1.12 0 3.478 0 6.11 1.22 7.833 3.624 1.074 1.552 1.652 3.47 1.652 5.755 0 1.262-.156 2.62-.48 4.103l-.48 1.865h-17.372c-.034.358-.053.742-.053 1.066 0 1.33.273 2.377.852 3.144.276.375.595.713.96.96.687.447 1.573.692 2.61.692 1.263 0 2.371-.347 3.411-1.012.99-.631 1.936-1.64 2.771-3.038h6.608l-.586 1.28c-1.262 2.557-3.023 4.552-5.222 5.968-2.2 1.415-4.828 2.184-7.727 2.184-3.769 0-6.574-1.219-8.313-3.623-1.723-2.354-2.093-5.606-1.173-9.699.921-4.16 2.759-7.486 5.436-9.805 2.4-2.08 5.122-3.235 8.153-3.464zm27.764 0c.372-.028.738 0 1.118 0 3.48 0 6.112 1.22 7.834 3.624 1.075 1.552 1.652 3.47 1.652 5.755 0 1.245-.156 2.583-.48 4.05l-.48 1.918h-17.371c-.019.24-.037.454-.054.693-.013.09.006.226 0 .32v.053c0 .256.037.507.054.746.085.972.339 1.784.799 2.398.088.12.17.267.266.373.781.836 1.887 1.28 3.304 1.28a6.113 6.113 0 003.41-1.013c.99-.631 1.936-1.64 2.772-3.038h6.66l-.639 1.279c-1.262 2.558-3.022 4.553-5.222 5.969-2.2 1.415-4.828 2.184-7.727 2.184-3.768 0-6.573-1.219-8.313-3.623-1.125-1.535-1.652-3.49-1.652-5.809 0-.358.018-.744.054-1.12.068-.886.204-1.78.426-2.77.92-4.144 2.705-7.486 5.382-9.805 2.4-2.08 5.176-3.235 8.207-3.464zm75.616 0c.381-.029.732 0 1.12 0 3.547 0 6.273 1.2 8.046 3.57 1.757 2.37 2.183 5.568 1.28 9.592-.7 3.138-1.71 5.673-3.092 7.514-1.38 1.842-3.141 3.347-5.222 4.37-2.063 1.023-4.248 1.545-6.448 1.545-3.615 0-6.307-1.236-8.047-3.623-1.125-1.518-1.705-3.472-1.705-5.809 0-1.261.139-2.602.48-4.103 1.023-4.57 3.112-8.05 6.181-10.285 2.253-1.626 4.742-2.566 7.407-2.77zm93.63 0c.449-.027.865 0 1.331 0 2.149 0 3.837.218 5.116.746 1.364.546 2.332 1.318 2.878 2.238.528.87.799 1.938.799 3.251l-.64 3.89-1.172 5.276c-1.006 4.502-1.227 6.19-1.279 6.82-.05.853.028 1.684.267 2.452l.426 1.385h-6.288l-.267-.799c-.102-.375-.072-.852-.106-1.279-1.194.733-2.39 1.384-3.464 1.759-1.586.546-3.231.852-4.903.852-2.898 0-5.045-.754-6.341-2.238-.989-1.091-1.439-2.425-1.439-3.943 0-.58.077-1.18.213-1.812.29-1.296.817-2.496 1.653-3.57.818-1.058 1.786-1.927 2.877-2.558 1.057-.631 2.236-1.079 3.464-1.386l3.784-.64c2.915-.34 5.092-.764 6.66-1.225.034-.17.107-.373.107-.373.247-1.097.216-1.922-.053-2.344-.02-.028-.084-.084-.107-.107-.057-.061-.146-.158-.213-.213-.641-.508-1.735-.746-3.197-.746-1.654 0-2.878.27-3.73.799-.836.529-1.61 1.496-2.292 2.878h-6.448l.586-1.28c.768-1.773 1.682-3.244 2.825-4.37 1.142-1.124 2.686-1.996 4.476-2.61a17.746 17.746 0 014.476-.853zm27.017 0c.24-.03.503 0 .746 0 1.551 0 3.005.467 4.37 1.44l.799.585-3.304 5.436-.906-.64c-.665-.426-1.345-.64-2.078-.64-.648 0-1.288.231-1.919.64-.648.427-1.119.991-1.545 1.759a17.493 17.493 0 00-1.599 4.37l-2.93 13.108h-6.182l5.702-25.578h5.755s-.145.776-.213 1.065c.272-.204.543-.485.8-.639.812-.493 1.645-.8 2.504-.906zm18.278 0c.372-.028.738 0 1.119 0 3.479 0 6.128 1.22 7.833 3.624 1.092 1.552 1.652 3.47 1.652 5.755 0 1.262-.209 2.62-.533 4.103l-.426 1.865h-17.372c-.034.358-.107.742-.107 1.066 0 1.33.29 2.377.853 3.144.088.12.223.267.32.373.056.06.154.158.213.214.762.693 1.8 1.065 3.09 1.065 1.262 0 2.37-.347 3.41-1.012.99-.631 1.92-1.64 2.772-3.038h6.661l-.64 1.28c-1.261 2.557-3.039 4.552-5.222 5.968-2.216 1.415-4.81 2.184-7.727 2.184-3.768 0-6.52-1.219-8.26-3.623-1.721-2.353-2.129-5.606-1.225-9.699.92-4.16 2.705-7.486 5.382-9.805 2.415-2.08 5.179-3.235 8.207-3.464zm-93.31.48h6.342s.782 15.179.8 15.4c.255-.543.454-1 .48-1.065l6.98-14.335h5.809s.533 14.995.533 15.08c.17-.306 7.94-15.08 7.94-15.08h6.287l-13.855 25.578h-5.701s-.553-13.87-.587-14.654c-2.353 4.826-7.14 14.654-7.14 14.654h-5.862l-2.025-25.578zm-148.888 4.85c-1.47.061-2.803.59-4.05 1.598-.99.784-1.657 1.86-2.185 3.037h10.498c.018-.187.053-.415.053-.586 0-.972-.173-1.727-.48-2.238-.75-1.228-1.863-1.812-3.517-1.812-.099 0-.222-.005-.32 0zm27.763 0c-1.469.061-2.803.59-4.05 1.598-.989.784-1.639 1.86-2.185 3.037h10.498c.018-.187.054-.415.054-.586 0-.972-.156-1.727-.48-2.238a4.308 4.308 0 00-.533-.693c-.712-.735-1.692-1.119-2.984-1.119-.1 0-.222-.005-.32 0zm214.755 0c-1.511.046-2.922.557-4.21 1.598-.972.784-1.64 1.86-2.185 3.037h10.444c.019-.187.054-.415.054-.586 0-.972-.156-1.727-.48-2.238-.733-1.21-1.863-1.795-3.517-1.812h-.106zm-139.617.106c-1.41.167-2.721.81-3.944 1.918-1.466 1.33-2.53 3.42-3.144 6.182-.256 1.16-.373 2.15-.373 3.037 0 1.21.232 2.161.693 2.878.122.184.285.378.426.532.758.805 1.817 1.226 3.144 1.226 1.722 0 3.24-.641 4.69-1.972 1.466-1.347 2.513-3.457 3.144-6.288.58-2.591.498-4.527-.32-5.755-.784-1.193-1.931-1.758-3.517-1.758-.27 0-.538-.031-.8 0zm96.293 9.325c-1.45.393-3.074.723-5.223 1.013-1.603.239-2.745.49-3.41.746a3.8 3.8 0 00-1.44 1.012c-.374.427-.626.874-.745 1.386a3.746 3.746 0 00-.053.586v.053c.001.04-.006.12 0 .16.01.077.032.194.053.266.008.024.044.084.053.107.018.046.03.116.054.16.023.043.077.118.106.16.045.06.105.155.16.213.426.477 1.277.692 2.504.692 1.348 0 2.644-.255 3.837-.852a7.463 7.463 0 002.825-2.451c.511-.717.92-1.819 1.279-3.251zM58.319 191.417L201.335 43.754h23.355L190.16 191.417h-19.21l9.805-42.506h-59.955l-40.743 42.506H58.32m77.05-57.716h49.035l9.047-37.066c3.652-14.706 7.166-26.961 10.544-36.765-6.75 8.461-15.682 18.5-26.794 30.117L135.369 133.7" fill="#636"/><path d="M540.792 243.238c.692 1.78 1.384 3.557 2.105 5.294 1.11 2.361 2.394 4.621 3.937 6.731 8.336 11.331 22.296 17.535 40.02 19.08h19.065c6.028-.47 12.345-1.347 18.893-2.628 11.292-2.208 23.262-5.6 35.693-10.133 9.417-3.433 19.094-7.496 28.915-12.217 21.387-10.253 43.481-23.476 65.157-39.433a432.713 432.713 0 0020.565-16.118 409.615 409.615 0 0017.335-15.26c15.416-14.856 27.055-29.946 33.645-43.195 6.865-13.797 8.235-25.594 2.61-33.025-3.446-4.562-9.215-7.006-16.642-7.582 33.458-25.105 52.956-55.559 45.962-74.76-2.221-6.127-7.11-10.699-14.12-13.227-3.114-1.12-6.619-1.83-10.44-2.153h-10.297c-14.379 1.037-35.287 6.185-53.026 14.878" fill="none" stroke="#636" stroke-width="8.5265776"/><g fill="#636"><path d="M.27 357.65h12.721l5.712-23.873h20.668l2.66-10.231H21.278l3.445-15.347h22.083l2.66-11.937H14.594L.27 357.65zM57.327 357.65l3.82-16.029c2.012-8.68 6.258-16.37 14.29-16.37.715 0 1.415.358 1.943.443l3.104-12.294c-.717 0-1.5-.085-2.388-.085-5.917 0-10.879 4.16-14.187 10.129h-.341c.494-2.916.92-5.679 1.245-8.424H53.848c-.63 3.547-1.603 10.487-3.086 16.745L44.52 357.65h12.806zM113.906 346.14c-3.53 1.722-7.554 1.279-12.243 1.279-3.7 0-6.566-.648-8.134-1.91-.819-1.381-1.16-3.53-1.092-4.91 17.274.46 28.17-3.53 28.716-14.444.41-8.236-5.61-12.84-14.358-12.84-15.62 0-25.85 13.778-26.516 27.044-.58 11.579 5.423 17.291 17.803 17.291 4.757 0 11.066-.545 16.233-2.097l-.409-9.413zm-4.672-19.985c-.205 4.058-5.218 4.297-15.091 4.212 1.074-3.564 4.689-6.821 10.606-6.821 2.916 0 4.587 1.108 4.485 2.609zM159.111 346.14c-3.53 1.722-7.554 1.279-12.226 1.279-3.717 0-6.565-.648-8.134-1.91-.818-1.381-1.176-3.53-1.108-4.91 17.29.46 28.17-3.53 28.733-14.444.409-8.236-5.61-12.84-14.358-12.84-15.637 0-25.868 13.778-26.534 27.044-.562 11.579 5.44 17.291 17.803 17.291 4.775 0 11.084-.545 16.25-2.097l-.426-9.413zm-4.655-19.985c-.204 4.058-5.218 4.297-15.108 4.212 1.091-3.564 4.69-6.821 10.606-6.821 2.916 0 4.605 1.108 4.502 2.609zM224.933 357.65c.102-5.405 1.398-13.897 2.745-19.473l5.474-23.157c-3.478-1.177-8.901-1.705-14.119-1.705-21.179 0-31.683 15.688-32.416 30.387-.46 9.225 4.536 13.948 12.311 13.948 5.03 0 10.71-2.438 15.126-9.77h.187c-.34 3.53-.75 6.957-.972 9.77h11.664zm-8.748-24.35c-2.49 10.845-7.57 14.119-11.357 14.119-3.53 0-5.064-2.507-4.86-6.156.41-8.236 6.924-17.717 15.143-17.717 1.33 0 2.37-.239 3.342-.478l-2.268 10.232zM233.272 355.638c2.455 1.91 7.605 1.927 12.976 2.012 11.476.086 20.139-4.928 20.65-14.136.29-6.139-4.467-9.77-9.122-12.21-3.36-1.62-5.048-3.171-4.963-4.979.12-2.438 2.405-2.78 5.764-2.78 3.786 0 6.821.461 8.56.802l3.445-9.242c-1.961-1.177-5.883-1.79-10.914-1.79-11.135 0-19.286 5.883-19.746 14.818-.273 5.525 3.7 9.242 8.509 11.766 3.888 1.995 5.218 3.53 5.116 5.695-.12 2.183-2.064 1.825-5.593 1.825-4.144 0-8.731-.546-11.153-.92l-3.53 9.14zM301.31 357.65l10.317-42.63H298.99l-10.385 42.63h12.704zm5.917-47.746c4.331 0 8.185-3.58 8.424-9.72.204-4.16-2.49-5.627-6.463-5.627-4.144 0-7.93 2.694-8.15 6.719-.206 4.058 2.489 8.628 6.19 8.628zM325.695 357.65l4.501-19.2c2.337-9.771 7.367-13.199 11.51-13.199 3.275 0 4.23 1.398 4.076 3.428a30.477 30.477 0 01-.682 4.894l-5.73 24.077h12.721l6.037-25.254c.46-2.183.972-5.44 1.074-7.418.375-7.69-3.461-10.487-10.521-10.487-5.661 0-11.17 2.626-15.518 8.322h-.17l1.16-7.793h-11.22c-.734 3.649-1.672 8.066-3.002 13.215l-6.957 29.415h12.72zM380.432 357.65h12.721l5.73-23.873h20.65l2.66-10.231h-20.752l3.444-15.347h22.083l2.66-11.937h-34.872l-14.324 61.388zM437.489 357.65l3.82-16.029c2.012-8.68 6.258-16.37 14.29-16.37.716 0 1.415.358 1.943.443l3.104-12.294c-.716 0-1.5-.085-2.387-.085-5.918 0-10.88 4.16-14.188 10.129h-.34c.494-2.916.92-5.679 1.244-8.424H434.01c-.614 3.547-1.603 10.487-3.086 16.745l-6.241 25.885h12.806zM494.068 346.14c-3.53 1.722-7.554 1.279-12.243 1.279-3.7 0-6.565-.648-8.134-1.91-.819-1.381-1.16-3.53-1.092-4.91 17.274.46 28.17-3.53 28.716-14.444.41-8.236-5.61-12.84-14.358-12.84-15.62 0-25.85 13.778-26.516 27.044-.58 11.579 5.44 17.291 17.803 17.291 4.757 0 11.084-.545 16.233-2.097l-.409-9.413zm-4.672-19.985c-.205 4.058-5.218 4.297-15.091 4.212 1.074-3.564 4.69-6.821 10.606-6.821 2.916 0 4.587 1.108 4.485 2.609zM539.274 346.14c-3.53 1.722-7.554 1.279-12.227 1.279-3.717 0-6.565-.648-8.134-1.91-.818-1.381-1.176-3.53-1.108-4.91 17.29.46 28.17-3.53 28.733-14.444.41-8.236-5.61-12.84-14.358-12.84-15.637 0-25.868 13.778-26.533 27.044-.563 11.579 5.44 17.291 17.802 17.291 4.775 0 11.084-.545 16.251-2.097l-.426-9.413zm-4.656-19.985c-.204 4.058-5.218 4.297-15.108 4.212 1.091-3.564 4.69-6.821 10.607-6.821 2.916 0 4.604 1.108 4.501 2.609zM589.816 294.557l-4.791 19.371c-1.74-.716-4.008-.613-5.78-.613-16.337 0-27.898 13.982-28.666 29.125-.511 10.674 5.184 15.21 12.517 15.21 5.132 0 10.538-2.268 14.63-8.134h.17l-.971 8.134h11.561c.529-5.115 1.637-11.203 2.882-16.762l11.067-46.33h-12.619zm-9.958 41.642c-1.995 8.406-6.702 11.22-10.419 11.22-3.7 0-5.764-2.575-5.508-7.162.426-8.492 6.258-16.711 13.847-16.711 2.131 0 3.956.324 4.962.801l-2.882 11.852zM618.822 357.65c14.836 0 26.278-11.237 27.08-26.533.494-10.129-5.816-17.802-17.462-17.802-15.381 0-26.414 12.448-27.182 27.488-.528 10.947 6.531 16.847 17.564 16.847zm1.995-10.231c-4.33 0-6.718-2.762-6.462-6.89.34-6.871 4.587-16.983 11.902-16.983 5.047 0 6.6 3.87 6.395 7.673-.376 7.503-4.946 16.2-11.835 16.2zM661.709 357.65l4.604-19.473c1.927-8.68 6.735-14.631 11.05-14.631 3.103 0 3.956 2.268 3.802 5.235-.085 1.535-.426 3.257-.784 4.962l-5.696 23.907h12.278l4.604-19.559c2.115-8.952 6.65-14.545 10.88-14.545 2.915 0 4.126 2.08 3.99 5.047-.086 1.723-.444 3.615-.887 5.338l-5.525 23.72h12.363l5.951-25.255c.46-2.268.99-5.798 1.074-7.605.375-7.503-3.29-11.476-9.907-11.476-5.661 0-11.17 2.557-15.347 7.946-.153-3.888-2.933-7.946-9.822-7.946-5.576 0-10.896 2.523-15.16 8.236h-.17l1.142-6.531h-10.947c-.716 3.649-1.586 8.066-2.916 13.215l-6.855 29.415h12.278z"/></g></svg>